<svg width="384" height="276" viewBox="0 0 384 276" fill="none" xmlns="http://www.w3.org/2000/svg">
<path d="M276.4 42.7335L264.427 54.7068C269.8 56.5068 275.04 58.4934 280.16 60.6801L291.76 49.0801C286.76 46.7734 281.627 44.6535 276.4 42.7335ZM192.173 27.7602H191.787C107.693 27.9202 31.5334 70.8268 2.2401 134.613L0.773438 137.813L2.2401 141.027C17.8268 174.96 46.6666 202.987 82.8799 221.8L94.2401 210.413C60.1734 193.747 32.8401 168.547 17.7201 137.813C45.6134 81.1468 115.04 43.2402 191.813 43.1202H192.173C213.373 43.1202 233.973 45.9868 253.32 51.3335L265.627 39.0268C242.587 31.7068 217.747 27.7602 192.173 27.7602ZM382.12 134.613C366.533 100.68 337.72 72.6534 301.507 53.8134L290.12 65.2268C324.173 81.8668 351.507 107.067 366.64 137.813C338.747 194.493 269.307 232.387 192.533 232.493H192.173C171.013 232.493 150.413 229.627 131.067 224.28L118.733 236.587C141.76 243.907 166.613 247.854 192.173 247.854H192.56C276.653 247.72 352.813 204.8 382.12 141.027L383.573 137.813L382.12 134.613ZM104.213 214.947L92.6 226.533C97.5867 228.84 102.733 230.96 107.96 232.907L119.96 220.907C114.587 219.107 109.333 217.147 104.213 214.947Z" fill="black"/>
<path d="M243.493 75.6401L232.587 86.5468C236.6 89.7201 240.24 93.3468 243.44 97.4001L254.333 86.4935C251.093 82.5335 247.427 78.8934 243.493 75.6401ZM192.174 57.1602C147.694 57.1602 111.507 93.3468 111.507 137.813C111.507 153.573 116.067 168.307 123.92 180.747L135.107 169.547C129.867 160.147 126.867 149.32 126.867 137.813C126.867 101.8 156.174 72.5202 192.174 72.5202C203.693 72.5202 214.52 75.5202 223.907 80.7602L235.093 69.5468C222.653 61.7201 207.947 57.1602 192.174 57.1602ZM260.427 94.8935L249.253 106.093C254.493 115.493 257.493 126.32 257.493 137.813C257.493 173.84 228.187 203.12 192.174 203.12C180.667 203.12 169.84 200.12 160.44 194.88L149.253 206.08C161.693 213.947 176.414 218.467 192.174 218.467C236.653 218.467 272.84 182.28 272.84 137.813C272.84 122.04 268.293 107.32 260.427 94.8935ZM140.92 178.24L130.013 189.147C133.267 193.08 136.894 196.72 140.84 200L151.773 189.093C147.747 185.92 144.12 182.253 140.92 178.24ZM243.493 75.6401L232.587 86.5468C236.6 89.7201 240.24 93.3468 243.44 97.4001L254.333 86.4935C251.093 82.5335 247.427 78.8934 243.493 75.6401Z" fill="black"/>
<path d="M327.64 13.2003L291.76 49.0802L280.16 60.6802L254.333 86.4936L243.44 97.4003L151.773 189.094L140.84 200L119.96 220.907L107.96 232.907L67.5733 273.294C66.0667 274.774 64.0932 275.547 62.1465 275.547C60.1732 275.547 58.2 274.774 56.72 273.294C53.7066 270.294 53.7066 265.427 56.72 262.44L92.5999 226.534L104.213 214.947L140.92 178.24L232.587 86.5469L316.787 2.34689C318.293 0.840225 320.267 0.0936362 322.213 0.0936362C324.173 0.0936362 326.147 0.840225 327.64 2.34689C330.653 5.34689 330.653 10.2003 327.64 13.2003Z" fill="black"/>
</svg>
