<svg width="384" height="221" viewBox="0 0 384 221" fill="none" xmlns="http://www.w3.org/2000/svg">
<path d="M192.533 205.32H192.173C115.227 205.32 45.6934 167.44 17.7201 110.627C45.6134 53.9603 115.04 16.067 191.813 15.9336H192.173C269.133 15.9336 338.667 53.8136 366.64 110.627C338.72 167.28 269.307 205.187 192.533 205.32ZM382.12 107.427C352.76 43.4803 276.48 0.586968 192.173 0.586968H191.787C107.693 0.706968 31.5334 43.6536 2.2401 107.427L0.773438 110.627L2.2401 113.827C31.5868 177.774 107.907 220.667 192.173 220.667H192.56C276.653 220.547 352.813 177.6 382.12 113.827L383.573 110.627L382.12 107.427Z" fill="black"/>
<path d="M192.173 144.787C173.347 144.787 158.013 129.467 158.013 110.627C158.013 91.7869 173.347 76.467 192.173 76.467C211.013 76.467 226.347 91.7869 226.347 110.627C226.347 129.467 211.013 144.787 192.173 144.787ZM192.173 61.1069C164.867 61.1069 142.653 83.3203 142.653 110.627C142.653 137.934 164.867 160.147 192.173 160.147C219.48 160.147 241.693 137.934 241.693 110.627C241.693 83.3203 219.48 61.1069 192.173 61.1069Z" fill="black"/>
<path d="M140 64.0534C139.48 64.3067 139.053 64.7201 138.787 65.2534L137.667 67.4801C138.747 66.1201 139.867 64.7867 141.04 63.5067L140 64.0534ZM140 64.0534C139.48 64.3067 139.053 64.7201 138.787 65.2534L137.667 67.4801C138.747 66.1201 139.867 64.7867 141.04 63.5067L140 64.0534ZM140 64.0534C139.48 64.3067 139.053 64.7201 138.787 65.2534L137.667 67.4801C138.747 66.1201 139.867 64.7867 141.04 63.5067L140 64.0534ZM140 64.0534C139.48 64.3067 139.053 64.7201 138.787 65.2534L137.667 67.4801C138.747 66.1201 139.867 64.7867 141.04 63.5067L140 64.0534ZM140 64.0534C139.48 64.3067 139.053 64.7201 138.787 65.2534L137.667 67.4801C138.747 66.1201 139.867 64.7867 141.04 63.5067L140 64.0534ZM140 64.0534C139.48 64.3067 139.053 64.7201 138.787 65.2534L137.667 67.4801C138.747 66.1201 139.867 64.7867 141.04 63.5067L140 64.0534ZM140 64.0534C139.48 64.3067 139.053 64.7201 138.787 65.2534L137.667 67.4801C138.747 66.1201 139.867 64.7867 141.04 63.5067L140 64.0534ZM140 64.0534C139.48 64.3067 139.053 64.7201 138.787 65.2534L137.667 67.4801C138.747 66.1201 139.867 64.7867 141.04 63.5067L140 64.0534ZM140 64.0534C139.48 64.3067 139.053 64.7201 138.787 65.2534L137.667 67.4801C138.747 66.1201 139.867 64.7867 141.04 63.5067L140 64.0534ZM140 64.0534C139.48 64.3067 139.053 64.7201 138.787 65.2534L137.667 67.4801C138.747 66.1201 139.867 64.7867 141.04 63.5067L140 64.0534ZM140 64.0534C139.48 64.3067 139.053 64.7201 138.787 65.2534L137.667 67.4801C138.747 66.1201 139.867 64.7867 141.04 63.5067L140 64.0534ZM140 64.0534C139.48 64.3067 139.053 64.7201 138.787 65.2534L137.667 67.4801C138.747 66.1201 139.867 64.7867 141.04 63.5067L140 64.0534ZM140 64.0534C139.48 64.3067 139.053 64.7201 138.787 65.2534L137.667 67.4801C138.747 66.1201 139.867 64.7867 141.04 63.5067L140 64.0534ZM140 64.0534C139.48 64.3067 139.053 64.7201 138.787 65.2534L137.667 67.4801C138.747 66.1201 139.867 64.7867 141.04 63.5067L140 64.0534ZM140 64.0534C139.48 64.3067 139.053 64.7201 138.787 65.2534L137.667 67.4801C138.747 66.1201 139.867 64.7867 141.04 63.5067L140 64.0534ZM140 64.0534C139.48 64.3067 139.053 64.7201 138.787 65.2534L137.667 67.4801C138.747 66.1201 139.867 64.7867 141.04 63.5067L140 64.0534ZM140 64.0534C139.48 64.3067 139.053 64.7201 138.787 65.2534L137.667 67.4801C138.747 66.1201 139.867 64.7867 141.04 63.5067L140 64.0534ZM140 64.0534C139.48 64.3067 139.053 64.7201 138.787 65.2534L137.667 67.4801C138.747 66.1201 139.867 64.7867 141.04 63.5067L140 64.0534ZM140 64.0534C139.48 64.3067 139.053 64.7201 138.787 65.2534L137.667 67.4801C138.747 66.1201 139.867 64.7867 141.04 63.5067L140 64.0534ZM140 64.0534C139.48 64.3067 139.053 64.7201 138.787 65.2534L137.667 67.4801C138.747 66.1201 139.867 64.7867 141.04 63.5067L140 64.0534ZM140 64.0534C139.48 64.3067 139.053 64.7201 138.787 65.2534L137.667 67.4801C138.747 66.1201 139.867 64.7867 141.04 63.5067L140 64.0534ZM140 64.0534C139.48 64.3067 139.053 64.7201 138.787 65.2534L137.667 67.4801C138.747 66.1201 139.867 64.7867 141.04 63.5067L140 64.0534ZM140 64.0534C139.48 64.3067 139.053 64.7201 138.787 65.2534L137.667 67.4801C138.747 66.1201 139.867 64.7867 141.04 63.5067L140 64.0534ZM140 64.0534C139.48 64.3067 139.053 64.7201 138.787 65.2534L137.667 67.4801C138.747 66.1201 139.867 64.7867 141.04 63.5067L140 64.0534ZM140 64.0534C139.48 64.3067 139.053 64.7201 138.787 65.2534L137.667 67.4801C138.747 66.1201 139.867 64.7867 141.04 63.5067L140 64.0534ZM140 64.0534C139.48 64.3067 139.053 64.7201 138.787 65.2534L137.667 67.4801C138.747 66.1201 139.867 64.7867 141.04 63.5067L140 64.0534ZM140 64.0534C139.48 64.3067 139.053 64.7201 138.787 65.2534L137.667 67.4801C138.747 66.1201 139.867 64.7867 141.04 63.5067L140 64.0534ZM140 64.0534C139.48 64.3067 139.053 64.7201 138.787 65.2534L137.667 67.4801C138.747 66.1201 139.867 64.7867 141.04 63.5067L140 64.0534ZM138.787 65.2534L137.667 67.4801C138.747 66.1201 139.867 64.7867 141.04 63.5067L140 64.0534C139.48 64.3067 139.053 64.7201 138.787 65.2534ZM192.173 25.7067C174.853 25.7067 158.733 30.9334 145.267 39.8934C143.84 40.8401 142.427 41.8401 141.04 42.8801C139.64 43.9334 138.28 45.0401 136.947 46.1867L138.787 49.84C139.053 50.36 139.48 50.7867 140 51.0534L148.16 55.1201C148.6 55.3201 148.947 55.6534 149.187 56.0134C150.52 54.9334 151.893 53.92 153.307 52.9734C154.733 52 156.2 51.1067 157.68 50.2534C167.84 44.4001 179.613 41.0667 192.173 41.0667C230.533 41.0667 261.733 72.2667 261.733 110.627C261.733 148.987 230.533 180.213 192.173 180.213C153.813 180.213 122.613 148.987 122.613 110.627C122.613 101.307 124.467 92.4534 127.787 84.3468C128.427 82.7334 129.147 81.1734 129.933 79.6401C130.733 78.0267 131.6 76.4401 132.52 74.8801C132.44 74.8934 132.373 74.8934 132.293 74.8934C131.346 74.8934 130.373 74.4134 129.893 73.4134L125.787 65.2534C125.533 64.7201 125.107 64.3067 124.587 64.0534L122.053 62.7734C121.107 64.1734 120.16 65.6401 119.293 67.1201C118.426 68.5734 117.573 70.0667 116.813 71.5734C110.693 83.2667 107.267 96.5467 107.267 110.627C107.267 157.453 145.347 195.56 192.173 195.56C239.013 195.56 277.093 157.453 277.093 110.627C277.093 63.7867 239.013 25.7067 192.173 25.7067ZM140 64.0534C139.48 64.3067 139.053 64.7201 138.787 65.2534L137.667 67.4801C138.747 66.1201 139.867 64.7867 141.04 63.5067L140 64.0534ZM140 64.0534C139.48 64.3067 139.053 64.7201 138.787 65.2534L137.667 67.4801C138.747 66.1201 139.867 64.7867 141.04 63.5067L140 64.0534ZM140 64.0534C139.48 64.3067 139.053 64.7201 138.787 65.2534L137.667 67.4801C138.747 66.1201 139.867 64.7867 141.04 63.5067L140 64.0534ZM140 64.0534C139.48 64.3067 139.053 64.7201 138.787 65.2534L137.667 67.4801C138.747 66.1201 139.867 64.7867 141.04 63.5067L140 64.0534ZM140 64.0534C139.48 64.3067 139.053 64.7201 138.787 65.2534L137.667 67.4801C138.747 66.1201 139.867 64.7867 141.04 63.5067L140 64.0534ZM140 64.0534C139.48 64.3067 139.053 64.7201 138.787 65.2534L137.667 67.4801C138.747 66.1201 139.867 64.7867 141.04 63.5067L140 64.0534ZM140 64.0534C139.48 64.3067 139.053 64.7201 138.787 65.2534L137.667 67.4801C138.747 66.1201 139.867 64.7867 141.04 63.5067L140 64.0534ZM140 64.0534C139.48 64.3067 139.053 64.7201 138.787 65.2534L137.667 67.4801C138.747 66.1201 139.867 64.7867 141.04 63.5067L140 64.0534ZM140 64.0534C139.48 64.3067 139.053 64.7201 138.787 65.2534L137.667 67.4801C138.747 66.1201 139.867 64.7867 141.04 63.5067L140 64.0534ZM140 64.0534C139.48 64.3067 139.053 64.7201 138.787 65.2534L137.667 67.4801C138.747 66.1201 139.867 64.7867 141.04 63.5067L140 64.0534ZM140 64.0534C139.48 64.3067 139.053 64.7201 138.787 65.2534L137.667 67.4801C138.747 66.1201 139.867 64.7867 141.04 63.5067L140 64.0534ZM140 64.0534C139.48 64.3067 139.053 64.7201 138.787 65.2534L137.667 67.4801C138.747 66.1201 139.867 64.7867 141.04 63.5067L140 64.0534ZM140 64.0534C139.48 64.3067 139.053 64.7201 138.787 65.2534L137.667 67.4801C138.747 66.1201 139.867 64.7867 141.04 63.5067L140 64.0534ZM140 64.0534C139.48 64.3067 139.053 64.7201 138.787 65.2534L137.667 67.4801C138.747 66.1201 139.867 64.7867 141.04 63.5067L140 64.0534ZM140 64.0534C139.48 64.3067 139.053 64.7201 138.787 65.2534L137.667 67.4801C138.747 66.1201 139.867 64.7867 141.04 63.5067L140 64.0534ZM140 64.0534C139.48 64.3067 139.053 64.7201 138.787 65.2534L137.667 67.4801C138.747 66.1201 139.867 64.7867 141.04 63.5067L140 64.0534ZM140 64.0534C139.48 64.3067 139.053 64.7201 138.787 65.2534L137.667 67.4801C138.747 66.1201 139.867 64.7867 141.04 63.5067L140 64.0534ZM140 64.0534C139.48 64.3067 139.053 64.7201 138.787 65.2534L137.667 67.4801C138.747 66.1201 139.867 64.7867 141.04 63.5067L140 64.0534ZM140 64.0534C139.48 64.3067 139.053 64.7201 138.787 65.2534L137.667 67.4801C138.747 66.1201 139.867 64.7867 141.04 63.5067L140 64.0534ZM140 64.0534C139.48 64.3067 139.053 64.7201 138.787 65.2534L137.667 67.4801C138.747 66.1201 139.867 64.7867 141.04 63.5067L140 64.0534ZM140 64.0534C139.48 64.3067 139.053 64.7201 138.787 65.2534L137.667 67.4801C138.747 66.1201 139.867 64.7867 141.04 63.5067L140 64.0534ZM140 64.0534C139.48 64.3067 139.053 64.7201 138.787 65.2534L137.667 67.4801C138.747 66.1201 139.867 64.7867 141.04 63.5067L140 64.0534ZM140 64.0534C139.48 64.3067 139.053 64.7201 138.787 65.2534L137.667 67.4801C138.747 66.1201 139.867 64.7867 141.04 63.5067L140 64.0534ZM140 64.0534C139.48 64.3067 139.053 64.7201 138.787 65.2534L137.667 67.4801C138.747 66.1201 139.867 64.7867 141.04 63.5067L140 64.0534ZM140 64.0534C139.48 64.3067 139.053 64.7201 138.787 65.2534L137.667 67.4801C138.747 66.1201 139.867 64.7867 141.04 63.5067L140 64.0534ZM140 64.0534C139.48 64.3067 139.053 64.7201 138.787 65.2534L137.667 67.4801C138.747 66.1201 139.867 64.7867 141.04 63.5067L140 64.0534ZM140 64.0534C139.48 64.3067 139.053 64.7201 138.787 65.2534L137.667 67.4801C138.747 66.1201 139.867 64.7867 141.04 63.5067L140 64.0534ZM140 64.0534C139.48 64.3067 139.053 64.7201 138.787 65.2534L137.667 67.4801C138.747 66.1201 139.867 64.7867 141.04 63.5067L140 64.0534ZM140 64.0534C139.48 64.3067 139.053 64.7201 138.787 65.2534L137.667 67.4801C138.747 66.1201 139.867 64.7867 141.04 63.5067L140 64.0534Z" fill="black"/>
<path d="M148.16 59.9605L141.04 63.5071L140 64.0538C139.48 64.3071 139.053 64.7204 138.786 65.2538L137.666 67.4805L134.693 73.4138C134.266 74.3338 133.413 74.8271 132.52 74.8805C132.44 74.8938 132.373 74.8938 132.293 74.8938C131.346 74.8938 130.373 74.4138 129.893 73.4138L125.786 65.2538C125.533 64.7204 125.106 64.3071 124.586 64.0538L122.053 62.7738L116.426 59.9605C114.426 58.9605 114.426 56.1204 116.426 55.1204L124.586 51.0538C125.106 50.7871 125.533 50.3604 125.786 49.8404L129.893 41.6538C130.373 40.6804 131.346 40.1738 132.293 40.1738C133.266 40.1738 134.213 40.6804 134.693 41.6538L136.946 46.1871L138.786 49.8404C139.053 50.3604 139.48 50.7871 140 51.0538L148.16 55.1204C148.6 55.3204 148.946 55.6538 149.186 56.0138C150.053 57.2938 149.72 59.1871 148.16 59.9605ZM157.68 50.2538C156.453 48.4938 154.786 46.9738 152.746 45.9871L146.826 43.0138L145.266 39.8938L143.853 37.1071C141.653 32.6671 137.226 29.9338 132.293 29.9338C127.346 29.9338 122.92 32.6671 120.72 37.1071L117.76 43.0138L111.84 45.9871C107.44 48.1871 104.707 52.6138 104.707 57.5471C104.707 62.4671 107.44 66.9204 111.84 69.1204L116.813 71.5738L117.76 72.0538L120.72 78.0005C122.24 80.9871 124.773 83.2138 127.786 84.3471C129.2 84.8538 130.733 85.1338 132.293 85.1338C137.226 85.1338 141.653 82.4005 143.853 78.0005L146.826 72.0538L152.746 69.1204C157.173 66.9204 159.907 62.4671 159.907 57.5471C159.907 54.8938 159.106 52.3604 157.68 50.2538Z" fill="black"/>
</svg>
